                        <svg width="59" height="38" fill="none" xmlns="http://www.w3.org/2000/svg"><path d="M3.56 35.924a27.624 27.624 0 0 1 4.588-.273c1.171.03 2.348-.007 3.528-.176 1.33-.187 2.646-.15 3.962-.112.778.022 1.556.044 2.336.02 1.55-.051 3.093.051 4.636.153.4.027.8.053 1.199.077.198.053.394.136.583.305-.424 0-.848-.01-1.27-.035l-.04.833c1.266.152 2.54.182 3.818.162.406-.006.813-.017 1.22-.028 1.194-.032 2.388-.064 3.575.038-.032.134-.054.28-.053.473l2.235.127c-.074-.189-.163-.271-.254-.317.148.022.296.042.443.062.526.07 1.053.14 1.571.323l.05-1.026a.982.982 0 0 1 .268-.175c.175-.076.351-.084.528-.074.244.015.489.03.733.043 2.229.128 4.457.216 6.68.404 2.259.186 4.528.113 6.81-.352a76.51 76.51 0 0 1 4.623-.791c.153-.02.304-.113.465-.505-.185-.453-.435.169-.592-.455.345-.318.66-.419.979-.48.089-.015.315.007.254-.537-.082-.734.066-.616.146-.687.438-.405.86-1.27 1.254-1.269-1.285-.823-2.705.078-4.123-.255.872-.519 1.682-1.004 2.49-1.486-.335-1.039-.794-.103-1.205-.646.137-.12.215-.207.296-.249.237-.125.558-.153.6-1.112.027-.597-.268-.98-.567-1.158l.023-.016.04-.027c.193-.13.325-.22.458-.32.08-.059.186-.103.206-.427.031-.5-.105-.436-.184-.432-.321.007-.645.064-.967.1.552-.862 1.108-1.391 1.692-1.603-.654-1.235-1.451-.492-2.07-1.21.142-1.07.402-1.494.714-1.573-.218-.122-.43-.117-.639-.154l-.005-.001c-.088-.013-.201-.03-.19-.466.016-.442.131-.49.224-.556.337-.235.673-.46 1.01-.685-.29-.747-.715.002-.996-.955.518-.337 1-.584 1.462-1.421l-3.885-.22c.155-.636.323-.228.353-.71.034-.568-.138-.552-.236-.68-.081-.107-.193-.194-.268-.062-.378.683-.652.026-.95-.323.605-.151 1.204-.198 1.806-.276.278-.04.165 1.034.307 1.366-.047.072-.093.147-.16.253.162.185.31.118.445-.194.182-.424.522.041.546-.694.032-.934-.367-.059-.54-.816.792-.14 1.538-.519 2.29-1.35-.3-1.4-.777-.989-1.185-1.173.681-.184.706-.217 1-1.612-1.719-.291-3.456.503-5.147.074.086-.327.166-.21.24-.209 1.626.029 3.278-.897 4.912-1.138.202-.031.557.381.596-.527.033-.728-.37-.392-.58-.416-.56-.07-1.115-.194-1.689-.1 1.398-.691 2.75-2.554 4.132-3.763l-.005-.002c-.638-1.136-1.387-.913-2.143-1.12.268-.635.528-.178.793-.984-.498-.12-.925-.474-1.384-.395a23.454 23.454 0 0 1-4.168.37c-1.066-.003-2.136.06-3.206.25-1.92.339-3.817.121-5.726.232-1.774.107-3.54-.024-5.308-.094a1.183 1.183 0 0 1-.545-.296l-3.31-.188c-.39-.062-.777-.111-1.16-.142.908.003 1.817-.026 2.727-.056 1.591-.051 3.182-.103 4.762.02l.054-.85c-1.39-.187-2.792-.25-4.196-.261C34.83.909 34.381.91 33.934.91c-1.313.003-2.627.005-3.93-.129.036-.136.063-.284.063-.483L27.612.113c.08.196.176.282.275.332-.162-.027-.324-.051-.486-.075C26.823.285 26.245.2 25.677 0l-.067 1.047c-.294.237-.585.257-.878.235-.955-.077-1.91-.145-2.865-.213-1.762-.126-3.523-.252-5.281-.43-2.481-.249-4.977-.23-7.492.187-1.699.281-3.397.51-5.093.692-.168.017-.335.108-.518.505.093.216.203.197.31.179.125-.022.247-.043.336.3-.383.317-.73.412-1.082.466l-.027.003c-.11.01-.315.029-.26.54.066.613-.028.644-.114.673a.174.174 0 0 0-.055.026c-.178.148-.354.359-.528.566-.3.359-.591.707-.866.7.815.507 1.686.421 2.578.334.645-.063 1.3-.128 1.952.03l-1.464.773-1.293.684c.204.61.459.565.723.519.2-.035.404-.071.595.171l-.128.104a.991.991 0 0 1-.2.143c-.03.014-.062.027-.094.04-.245.1-.529.215-.58 1.082-.037.61.283 1.009.61 1.199l-.027.015a14.643 14.643 0 0 0-.576.358c-.084.052-.184.114-.207.416-.037.465.085.455.173.447l.024-.001c.25 0 .502-.025.754-.05l.31-.029c-.617.868-1.235 1.395-1.88 1.597.404.734.868.803 1.316.87.334.05.659.099.945.418-.17 1.092-.46 1.519-.804 1.591.178.097.353.122.525.146.059.009.117.017.176.028l.004.001c.098.016.222.036.203.481-.02.42-.132.49-.231.55l-.021.013c-.306.19-.612.373-.917.555l-.201.12c.144.36.325.387.507.414.208.03.417.062.575.587l-.173.098c-.508.288-.986.559-1.452 1.318l4.269.324c-.093.335-.186.383-.26.42-.067.034-.118.06-.137.296-.035.454.075.545.174.628a.49.49 0 0 1 .077.074c.088.11.21.202.294.07.345-.56.603-.217.862.127.06.079.119.158.18.226-.51.107-1.016.15-1.521.195-.157.013-.313.027-.47.042-.184.02-.207-.372-.23-.76-.015-.255-.03-.508-.09-.644l.064-.091.116-.164c-.176-.194-.34-.129-.492.187-.087.18-.202.2-.31.216-.147.024-.279.045-.3.48-.024.5.088.495.226.489.125-.006.272-.012.359.358-.873.123-1.699.492-2.535 1.323.235 1.082.593 1.12.946 1.156.116.012.232.024.342.073-.751.17-.779.204-1.119 1.623.888.16 1.784.075 2.676-.01 1.003-.095 2.002-.19 2.984.064-.079.264-.15.241-.217.219a.191.191 0 0 0-.05-.012c-1.04-.04-2.095.249-3.15.539-.756.207-1.513.415-2.264.501a.47.47 0 0 1-.186-.036c-.206-.067-.436-.14-.477.56-.034.56.211.509.434.462.072-.015.142-.03.2-.022.122.017.244.036.367.055l.184.029c.43.066.861.117 1.304.06-.99.43-1.965 1.352-2.941 2.275-.549.518-1.097 1.036-1.649 1.468l.005.002c.524.898 1.129.99 1.753 1.085.196.03.393.06.59.115-.14.297-.275.355-.41.413-.157.067-.312.133-.474.572.203.05.395.134.582.215.316.137.617.267.934.224Z" fill="#F37715"/></svg>