<svg width="21" height="3" fill="none" xmlns="http://www.w3.org/2000/svg"><path d="M20.5 2.659a.422.422 0 0 0-.086.036.421.421 0 0 1-.085.037c-.022-.017-.034-.029-.034-.037 0-.008-.011-.02-.034-.036a.067.067 0 0 1 .034-.05h.102a.18.18 0 0 1-.102-.024V2.44h.068c.068-.049.114-.073.136-.073 0-.061.006-.122.017-.183a.234.234 0 0 0-.05-.183.307.307 0 0 0 .067-.146.447.447 0 0 1-.034-.293.36.36 0 0 0-.034-.268.649.649 0 0 1 .068-.269A.603.603 0 0 1 20.5.83a.58.58 0 0 0-.034-.195.098.098 0 0 0 .01-.07A.122.122 0 0 0 20.43.5a.124.124 0 0 1-.042-.064.1.1 0 0 1 .008-.07c-.045-.033-.08-.041-.102-.025l-.102-.073v.098c-.04-.052-.085-.1-.136-.147a.294.294 0 0 1-.239 0c.013 0 .026.003.038.008a.1.1 0 0 1 .03.017.08.08 0 0 0-.023.022.056.056 0 0 0-.01.027c-.002.009-.005.018-.01.026a.08.08 0 0 1-.025.022.436.436 0 0 0-.085.037.421.421 0 0 1-.085.037.465.465 0 0 1-.068-.269.39.39 0 0 1-.112-.021.304.304 0 0 1-.092-.052c-.046.032-.08.045-.102.037-.023-.009-.057-.005-.103.012a.9.9 0 0 1-.17.073.068.068 0 0 1-.034-.049c0-.016-.022-.024-.068-.024h-.51a1.886 1.886 0 0 0-.375-.024.799.799 0 0 0-.239.024c-.045.032-.085.04-.119.024a.269.269 0 0 0-.119-.024.57.57 0 0 0-.204-.012.591.591 0 0 1-.205-.012 5.527 5.527 0 0 0-.493-.025h-.494a.48.48 0 0 0-.307 0 .372.372 0 0 1-.187 0 .363.363 0 0 0-.187 0 2.1 2.1 0 0 0-.222.012.94.94 0 0 1-.255-.012c-.045-.016-.08-.016-.102 0a.045.045 0 0 1-.015.009.058.058 0 0 1-.038 0 .045.045 0 0 1-.015-.009h-.256a.508.508 0 0 1-.22-.049l-.035.025a.562.562 0 0 0-.153.024.247.247 0 0 1-.153 0 .863.863 0 0 0-.41 0 .196.196 0 0 1-.135 0 .396.396 0 0 0-.136-.024c-.023 0-.034-.017-.034-.049v.049a.675.675 0 0 0-.188.024.247.247 0 0 1-.153 0 .567.567 0 0 0-.306-.012c-.101.024-.21.02-.307-.012h-.102L12.19.024a.18.18 0 0 1-.08.031.212.212 0 0 1-.09-.006.294.294 0 0 0-.17 0 .212.212 0 0 1-.091.006.18.18 0 0 1-.08-.03l-.068.048a1.645 1.645 0 0 0-.238-.037.448.448 0 0 0-.239.037.073.073 0 0 0-.006-.039A.096.096 0 0 0 11.1 0c-.113.049-.193.065-.238.049-.068-.033-.159-.033-.272 0a1.97 1.97 0 0 1-.511-.025c-.046-.016-.08-.016-.103 0-.022.016-.056.016-.102 0-.057.001-.114.005-.17.012a.382.382 0 0 1-.17-.012.287.287 0 0 0-.136.037.165.165 0 0 1-.136.012.575.575 0 0 0-.205-.012.379.379 0 0 1-.17-.012h-.51a.392.392 0 0 0-.154.036 2.74 2.74 0 0 1-.153.061L7.934.098a1.972 1.972 0 0 0-.34.024V.073a1.008 1.008 0 0 0-.443 0 .308.308 0 0 1-.17 0 .294.294 0 0 0-.17 0 .655.655 0 0 0-.222-.012.92.92 0 0 1-.255-.012c-.158.016-.318.02-.477.012a9.831 9.831 0 0 0-.51-.012.272.272 0 0 0-.12.024.15.15 0 0 1-.119 0c-.136 0-.227.025-.272.073V.073l-.068.049a.21.21 0 0 0-.12-.049A.368.368 0 0 1 4.53.05a.481.481 0 0 1-.34.025c-.04-.001-.081.003-.12.011A.215.215 0 0 1 3.95.073a1.43 1.43 0 0 0-.374 0V.024a.72.72 0 0 1-.239.05 1.716 1.716 0 0 0-.578 0c.023 0 .034.015.034.048a.211.211 0 0 0-.12-.012.215.215 0 0 1-.119-.012l-.136-.05a.191.191 0 0 0-.136 0A.126.126 0 0 0 2.219.04a.11.11 0 0 0-.056.022.11.11 0 0 1-.057.021.127.127 0 0 1-.063-.009 1.44 1.44 0 0 0-.306-.049.401.401 0 0 0-.136.025.193.193 0 0 1-.136 0 .126.126 0 0 0-.063-.01.11.11 0 0 0-.057.022.11.11 0 0 1-.056.021.127.127 0 0 1-.063-.009.196.196 0 0 1-.136 0L.954.024C.909.024.88.032.869.05.858.065.829.073.784.073v.049C.76.122.727.138.68.17A2.99 2.99 0 0 0 .58.415C.58.444.584.472.596.5a.193.193 0 0 1 .017.085C.61.7.621.814.647.927a.593.593 0 0 0-.034.195v.22c0 .06.006.122.017.182.012.061.018.122.017.183a.18.18 0 0 0 .017.171.334.334 0 0 1 .051.195.352.352 0 0 0 .069.244c-.023.016-.034.028-.034.037 0 .008-.012.02-.035.036.013.01.022.022.028.034a.073.073 0 0 1 .007.04c-.023.015-.04.024-.052.024-.01 0-.028.008-.05.024.022 0 .056.016.102.05a.739.739 0 0 0-.17.048.207.207 0 0 0 .101.073c.023.008.05.01.074.005a.121.121 0 0 0 .062-.03c.023-.016.092-.008.205.025a.074.074 0 0 1-.017.06.075.075 0 0 0-.017.062.091.091 0 0 0 .028.018.122.122 0 0 0 .074.007.111.111 0 0 0 .034-.013.11.11 0 0 1 .034-.013.13.13 0 0 1 .074.007.09.09 0 0 1 .028.018.172.172 0 0 0 .102.012.317.317 0 0 1 .103-.012.15.15 0 0 0 .07.03.181.181 0 0 0 .083-.005 2.79 2.79 0 0 0 .153-.049.15.15 0 0 0 .071.03.183.183 0 0 0 .082-.006.18.18 0 0 1 .083-.006.148.148 0 0 1 .07.03l.137-.048.068.049a.217.217 0 0 1 .102-.025c.037 0 .073.009.102.025.068.032.16.032.273 0a.182.182 0 0 1 .093-.025c.034 0 .068.009.094.025a.16.16 0 0 0 .071.029.193.193 0 0 0 .082-.005.443.443 0 0 0 .204 0 .756.756 0 0 1 .17-.024.165.165 0 0 0 .137-.013.11.11 0 0 1 .033-.012.13.13 0 0 1 .075.006.09.09 0 0 1 .028.019.149.149 0 0 0 .153.012.394.394 0 0 1 .153-.037v.05a.248.248 0 0 0 .154 0 .558.558 0 0 1 .153-.025h.477a.085.085 0 0 0 .03.018.114.114 0 0 0 .076 0 .085.085 0 0 0 .03-.018c.059.03.132.044.204.036a1.66 1.66 0 0 1 .204-.012h.41a2.5 2.5 0 0 1 .408-.024.41.41 0 0 0 .221.036c.073-.008.147-.012.221-.012a.781.781 0 0 0 .477 0 .19.19 0 0 1 .068.012.207.207 0 0 0 .068.012c.046-.016.114-.008.205.025a.148.148 0 0 0 .119 0 .272.272 0 0 1 .12-.025.166.166 0 0 0 .135-.012.11.11 0 0 1 .034-.013.13.13 0 0 1 .074.007.09.09 0 0 1 .028.018.15.15 0 0 0 .061.032c.024.007.05.008.075.005a.771.771 0 0 1 .137-.012c.102 0 .205.003.306.012a.636.636 0 0 0 .307-.06.043.043 0 0 0 .017.036c.006.005.01.01.014.017a.035.035 0 0 1 .003.02.91.91 0 0 0 .391-.037.38.38 0 0 1 .358.06c-.001-.013.005-.026.017-.036a.048.048 0 0 0 .014-.017.036.036 0 0 0 .003-.02l.068.05h.17v-.074c.046.032.08.049.102.049a.294.294 0 0 1 .17 0 .58.58 0 0 0 .205.012c.068-.008.136-.012.205-.012a.648.648 0 0 1 .22-.012.584.584 0 0 0 .256-.037.189.189 0 0 1 .055.005c.017.004.034.01.047.02l.015.008a.058.058 0 0 0 .038 0 .043.043 0 0 0 .015-.009.716.716 0 0 1 .239-.048v.073c.023-.017.04-.025.05-.025.013 0 .03-.008.052-.024v.073a.437.437 0 0 0 .204 0 .114.114 0 0 1 .034-.097c.021.014.038.03.051.048.014.018.031.035.051.05a.754.754 0 0 0 .17-.05c.112-.02.227-.028.341-.024a.258.258 0 0 0 .075-.014.199.199 0 0 0 .061-.035v.073l.069-.048c.05.018.096.043.136.073.045.016.074.016.085 0 .012-.017.04-.025.085-.025.171-.003.342.006.51.025a.22.22 0 0 0 .066-.01.175.175 0 0 0 .054-.027c.034-.024.074-.02.119.012a.349.349 0 0 0 .187.036.314.314 0 0 1 .153.013c.048.016.102.02.154.013.05-.008.102-.012.153-.013h.443a.199.199 0 0 0 .068-.012.165.165 0 0 1 .102.012c.106.016.215.02.323.013a3.94 3.94 0 0 1 .324-.013c.052 0 .103.005.153.013a.32.32 0 0 0 .153-.013.478.478 0 0 1 .341.025c.147-.017.296-.017.443 0a.689.689 0 0 0 .255 0c.08-.017.176-.033.29-.05l.102.05a.312.312 0 0 1 .153-.012.32.32 0 0 0 .153-.013.208.208 0 0 0 .153-.012.148.148 0 0 1 .153.012c.042.016.09.02.137.013a.257.257 0 0 1 .136.012.45.45 0 0 0 .187.012c.073-.008.147-.012.221-.012a.435.435 0 0 0 .154-.025.32.32 0 0 0 .12-.073l.033.049a.51.51 0 0 1 .17.024c.07-.01.14-.027.204-.049a.068.068 0 0 0 .035.05 8.91 8.91 0 0 0 .374-.074v.049c.04 0 .08.003.12.012.033.008.074-.004.119-.037.045-.032.09-.024.136.025.045-.033.08-.049.102-.049a.29.29 0 0 0 .051.061c.021.018.038.039.051.061a.075.075 0 0 1 .017-.061.047.047 0 0 0 .014-.017.035.035 0 0 0 .003-.02h.102a.221.221 0 0 1 .02-.117.295.295 0 0 1 .082-.102c.046-.016.057-.037.035-.061a.426.426 0 0 0-.069-.06v.097ZM5.346.195c.022.016.04.024.05.024.012 0 .03.009.052.025a.528.528 0 0 1-.12-.012.5.5 0 0 0-.119-.013.1.1 0 0 1 .03-.017.13.13 0 0 1 .038-.007.118.118 0 0 0 .069-.024v.024Zm1.055.098c.046-.017.125 0 .238.048h-.034l-.034.025a.043.043 0 0 0 .017.036c.007.005.011.011.014.017a.035.035 0 0 1 .003.02L6.538.39c0 .007 0 .013-.003.02a.048.048 0 0 1-.014.017.049.049 0 0 0-.013.017.037.037 0 0 0-.004.02V.365L6.402.293v.073a.252.252 0 0 0-.125-.019.219.219 0 0 0-.113.043L6.095.366a.974.974 0 0 1-.272.024.304.304 0 0 0-.068-.146h.477A.797.797 0 0 1 6.47.219c-.022.016-.034.029-.034.037 0 .008-.011.02-.034.037Zm12.259.024c0-.065.028-.094.085-.085.025.002.049.009.07.02.02.01.037.024.049.04a.642.642 0 0 0-.204.025ZM2.486.268c0 .033-.011.04-.034.025 0-.033.006-.05.017-.05.012 0 .017.009.017.025Zm.102-.024c0 .049-.01.073-.034.073-.068-.049-.056-.073.034-.073ZM16.55.317a.868.868 0 0 1 .205-.037.251.251 0 0 1 .123.017c.037.016.066.04.08.069a.325.325 0 0 0-.101.012c-.022.008-.056.004-.102-.012V.293c-.068.048-.09.08-.068.097 0-.006 0-.013-.003-.02a.048.048 0 0 0-.014-.016.043.043 0 0 1-.017-.037c-.023.016-.057.016-.103 0Zm1.158.049a.186.186 0 0 1-.078-.01.13.13 0 0 1-.058-.039.258.258 0 0 1 .136-.024v.073ZM2.214.39c-.023-.033-.057-.033-.102 0V.341h.102v.05ZM4.529.366c.002.019.014.036.034.049a1.435 1.435 0 0 0-.306.048C4.28.447 4.29.435 4.29.427c0-.009.012-.02.034-.037a.167.167 0 0 1 .102-.012.167.167 0 0 0 .102-.012Zm1.124.122a.705.705 0 0 1-.273.195V.78a.364.364 0 0 1-.17-.024.13.13 0 0 0 .038-.007.1.1 0 0 0 .03-.017V.659h.102c-.045 0-.102-.041-.17-.123l.102-.073c-.045 0-.045-.016 0-.048.023-.033.046-.045.068-.037a.168.168 0 0 0 .103-.012v.073a.06.06 0 0 1-.031.015.076.076 0 0 1-.038-.003c-.022-.008-.045.004-.067.037.047.016.101.02.153.012.05-.008.101-.012.153-.012ZM19 .366c0 .049-.011.073-.034.073a.793.793 0 0 0-.238-.024.149.149 0 0 1 .06-.032.194.194 0 0 1 .076-.005A.262.262 0 0 0 19 .366Zm.409.073a.21.21 0 0 0-.09-.007.178.178 0 0 0-.08.031.068.068 0 0 1-.035-.048.672.672 0 0 1 .205-.05V.44Zm.272.049c.068-.082.136-.098.205-.05a.34.34 0 0 1-.102.025.338.338 0 0 0-.103.025ZM5.79.708c-.022.015-.034.027-.034.036 0 .008-.011.02-.034.036L5.653.732V.634c.02.015.043.027.068.037.026.009.049.021.068.036Zm-.17.097h-.102a.068.068 0 0 1-.034-.049.054.054 0 0 0-.01-.027.078.078 0 0 0-.024-.022c.09 0 .148.016.17.049v.049Zm12.395 1.17c.023.033.017.053-.017.062-.035.008-.052.003-.052-.013a.032.032 0 0 1 .003-.02.043.043 0 0 1 .014-.016.067.067 0 0 1 .024-.01.083.083 0 0 1 .028-.002Zm2.145.074-.068.097A.252.252 0 0 0 20.057 2c.023 0 .057.016.102.049Zm-1.26.195a.254.254 0 0 1 .034.146h-.102a.307.307 0 0 0 .068-.146Zm-.102.097c0 .016-.034.05-.102.098 0-.033-.006-.053-.017-.061a.074.074 0 0 1-.017-.06.258.258 0 0 1 .136.023Zm.068.098c0 .033-.017.045-.051.037a.078.078 0 0 1-.04-.024.044.044 0 0 1-.011-.037.187.187 0 0 1 .054.004c.018.005.034.011.048.02Zm1.26.122c.01.005.018.013.02.022a.03.03 0 0 1-.003.027c-.011.016-.028.016-.051 0 0-.049.011-.065.034-.049Zm-.885.049c.022.03.033.063.034.097a.745.745 0 0 0-.17.05v-.098c.022-.017.067 0 .136.048V2.61Zm.545.073c0 .081-.035.097-.103.049-.113-.05-.192-.058-.238-.025-.01 0-.019 0-.027.003a.08.08 0 0 0-.024.01.08.08 0 0 1-.024.01.096.096 0 0 1-.027.002c.09-.065.159-.098.204-.098.084.003.165.02.239.049Zm-.954 0c0 .032-.022.045-.068.037-.045-.009-.057-.03-.034-.061.023-.017.057-.009.102.024Zm-9.773 0c.023.032.023.053 0 .06a.078.078 0 0 1-.037.003.062.062 0 0 1-.031-.014c0-.01.004-.019.01-.027a.08.08 0 0 1 .024-.022c.023-.016.034-.016.034 0Zm.477.024.136.05c-.09.032-.158.04-.204.023l-.102.074a.157.157 0 0 0 .034-.086c0-.024.022-.045.068-.06a.258.258 0 0 1 .136-.025l-.068.024Zm-1.056 0a.044.044 0 0 1-.01.037.079.079 0 0 1-.041.024c-.034.008-.05-.004-.05-.036a.158.158 0 0 1 .047-.02.19.19 0 0 1 .054-.005Zm1.703.073a.118.118 0 0 0 .068.025c.023 0 .046.016.068.049h-.204c0-.017.022-.041.068-.074Zm1.566.147c-.022-.033-.056-.033-.102 0-.023.032-.011.049.034.049.01 0 .019 0 .028-.002a.068.068 0 0 0 .023-.01.043.043 0 0 0 .015-.017.032.032 0 0 0 .002-.02Z" fill="#1B2323"/></svg>