<svg width="17" height="22" fill="none" xmlns="http://www.w3.org/2000/svg"><path d="M3.224 18.47h10.242v3.17H3.224v-3.17ZM9.64 14.109a2.092 2.092 0 0 1-.015-.243v-1.932a4.281 4.281 0 0 0 2.01-1.345h.008c.829 0 1.629-.275 2.285-.794a3.611 3.611 0 0 0 1.356-2.397L16.111.79l-1.27-.156-.16 1.268h-1.29L13.63 0H3.06l.238 1.902h-1.29L1.85.634.58.79l.826 6.608c.119.95.6 1.8 1.356 2.397a3.674 3.674 0 0 0 2.285.795h.009a4.282 4.282 0 0 0 2.009 1.345v1.93c0 .082-.005.164-.014.244.422.078.854.135 1.294.135.44 0 .872-.057 1.295-.135ZM14.523 3.17l-.51 4.071a2.353 2.353 0 0 1-.883 1.563 2.4 2.4 0 0 1-.726.393 4.18 4.18 0 0 0 .17-.768l.659-5.259h1.29ZM3.56 8.804a2.353 2.353 0 0 1-.883-1.563l-.51-4.071h1.29l.658 5.259c.033.265.091.522.171.768a2.402 2.402 0 0 1-.726-.393ZM10.307 15.27c-.604.128-1.264.243-1.962.243-.7 0-1.36-.115-1.963-.243-.378.308-.986.94-1.178 1.934h6.281c-.191-.994-.8-1.626-1.178-1.934Z" fill="#fff"/></svg>